<mxfile host="app.diagrams.net" modified="2023-10-10T12:14:11.349Z" agent="Mozilla/5.0 (Windows NT 10.0; Win64; x64) AppleWebKit/537.36 (KHTML, like Gecko) Chrome/117.0.0.0 Safari/537.36" etag="_hf6pZQOzHbog046JnLS" version="22.0.4" type="device">
  <diagram name="Page-1" id="IZdIbo_79zAdLXHsGysp">
    <mxGraphModel dx="1221" dy="622" grid="1" gridSize="10" guides="1" tooltips="1" connect="1" arrows="1" fold="1" page="1" pageScale="1" pageWidth="827" pageHeight="1169" math="0" shadow="0">
      <root>
        <mxCell id="0" />
        <mxCell id="1" parent="0" />
        <mxCell id="EKBnd-V4X-YpZfuDpHzn-1" value="" style="rounded=0;whiteSpace=wrap;html=1;fillColor=#e1d5e7;strokeColor=#9673a6;" vertex="1" parent="1">
          <mxGeometry x="160" y="110" width="520" height="330" as="geometry" />
        </mxCell>
        <mxCell id="gYOHqPmjpM_DS9vfHqBl-1" value="" style="rounded=0;whiteSpace=wrap;html=1;fillColor=#dae8fc;strokeColor=#6c8ebf;" parent="1" vertex="1">
          <mxGeometry x="175" y="140" width="490" height="210" as="geometry" />
        </mxCell>
        <mxCell id="gYOHqPmjpM_DS9vfHqBl-2" value="&lt;b&gt;length of phrase &lt;br&gt;&amp;lt;int 4b&amp;gt;&lt;/b&gt;" style="rounded=0;whiteSpace=wrap;html=1;fillColor=#dae8fc;strokeColor=#6c8ebf;" parent="1" vertex="1">
          <mxGeometry x="175" y="140" width="180" height="50" as="geometry" />
        </mxCell>
        <mxCell id="gYOHqPmjpM_DS9vfHqBl-3" value="" style="rounded=0;whiteSpace=wrap;html=1;fillColor=#d5e8d4;strokeColor=#82b366;" parent="1" vertex="1">
          <mxGeometry x="190" y="200" width="465" height="50" as="geometry" />
        </mxCell>
        <mxCell id="gYOHqPmjpM_DS9vfHqBl-4" value="&lt;b&gt;suspend_delta &amp;lt;varint 1-4b&amp;gt;&lt;/b&gt;" style="rounded=0;whiteSpace=wrap;html=1;fillColor=#d5e8d4;strokeColor=#82b366;" parent="1" vertex="1">
          <mxGeometry x="190" y="200" width="215" height="40" as="geometry" />
        </mxCell>
        <mxCell id="gYOHqPmjpM_DS9vfHqBl-5" value="&lt;b style=&quot;border-color: var(--border-color);&quot;&gt;suspend_delay&amp;nbsp;&lt;/b&gt;&lt;b style=&quot;border-color: var(--border-color);&quot;&gt;&amp;lt;varint 1-4b&amp;gt;&lt;/b&gt;" style="rounded=0;whiteSpace=wrap;html=1;fillColor=#d5e8d4;strokeColor=#82b366;" parent="1" vertex="1">
          <mxGeometry x="405" y="200" width="195" height="40" as="geometry" />
        </mxCell>
        <mxCell id="gYOHqPmjpM_DS9vfHqBl-6" value="&lt;b&gt;start_time &lt;br&gt;&amp;lt;long 8b&amp;gt;&lt;/b&gt;" style="rounded=0;whiteSpace=wrap;html=1;fillColor=#dae8fc;strokeColor=#6c8ebf;" parent="1" vertex="1">
          <mxGeometry x="325" y="140" width="170" height="50" as="geometry" />
        </mxCell>
        <mxCell id="gYOHqPmjpM_DS9vfHqBl-7" value="&lt;b&gt;&lt;font style=&quot;font-size: 16px;&quot;&gt;...&lt;/font&gt;&lt;/b&gt;" style="rounded=0;whiteSpace=wrap;html=1;fillColor=#e1ddda;strokeColor=#d6b656;" parent="1" vertex="1">
          <mxGeometry x="190" y="250" width="465.17" height="40" as="geometry" />
        </mxCell>
        <mxCell id="EKBnd-V4X-YpZfuDpHzn-2" value="&lt;b&gt;Phrase #1&lt;/b&gt;" style="text;html=1;strokeColor=none;fillColor=none;align=center;verticalAlign=middle;whiteSpace=wrap;rounded=0;" vertex="1" parent="1">
          <mxGeometry x="595" y="150" width="60" height="30" as="geometry" />
        </mxCell>
        <mxCell id="EKBnd-V4X-YpZfuDpHzn-3" value="&lt;font style=&quot;font-size: 17px;&quot;&gt;&lt;b&gt;Suspend Stream&lt;/b&gt;&lt;/font&gt;" style="text;html=1;strokeColor=none;fillColor=none;align=center;verticalAlign=middle;whiteSpace=wrap;rounded=0;" vertex="1" parent="1">
          <mxGeometry x="340" y="110" width="160" height="30" as="geometry" />
        </mxCell>
        <mxCell id="EKBnd-V4X-YpZfuDpHzn-5" value="" style="rounded=0;whiteSpace=wrap;html=1;fillColor=#dae8fc;strokeColor=#6c8ebf;" vertex="1" parent="1">
          <mxGeometry x="174.65" y="360" width="490.35" height="60" as="geometry" />
        </mxCell>
        <mxCell id="EKBnd-V4X-YpZfuDpHzn-6" value="&lt;b&gt;Phrase #n&lt;/b&gt;" style="text;html=1;strokeColor=none;fillColor=none;align=center;verticalAlign=middle;whiteSpace=wrap;rounded=0;" vertex="1" parent="1">
          <mxGeometry x="559.0446153846152" y="324" width="134.6153846153846" height="113.33333333333334" as="geometry" />
        </mxCell>
        <mxCell id="EKBnd-V4X-YpZfuDpHzn-7" value="&lt;p style=&quot;line-height: 70%;&quot;&gt;&lt;b style=&quot;font-size: 9px;&quot;&gt;suspend &lt;br&gt;#1&lt;/b&gt;&lt;/p&gt;" style="text;html=1;strokeColor=none;fillColor=none;align=center;verticalAlign=middle;whiteSpace=wrap;rounded=0;" vertex="1" parent="1">
          <mxGeometry x="600" y="210" width="60" height="30" as="geometry" />
        </mxCell>
        <mxCell id="EKBnd-V4X-YpZfuDpHzn-9" value="" style="rounded=0;whiteSpace=wrap;html=1;fillColor=#d5e8d4;strokeColor=#82b366;" vertex="1" parent="1">
          <mxGeometry x="190.17" y="290" width="465" height="50" as="geometry" />
        </mxCell>
        <mxCell id="EKBnd-V4X-YpZfuDpHzn-10" value="&lt;b&gt;suspend_delta &amp;lt;varint 1-4b&amp;gt;&lt;/b&gt;" style="rounded=0;whiteSpace=wrap;html=1;fillColor=#d5e8d4;strokeColor=#82b366;" vertex="1" parent="1">
          <mxGeometry x="190.17" y="290" width="215" height="40" as="geometry" />
        </mxCell>
        <mxCell id="EKBnd-V4X-YpZfuDpHzn-11" value="&lt;b style=&quot;border-color: var(--border-color);&quot;&gt;suspend_delay&amp;nbsp;&lt;/b&gt;&lt;b style=&quot;border-color: var(--border-color);&quot;&gt;&amp;lt;varint 1-4b&amp;gt;&lt;/b&gt;" style="rounded=0;whiteSpace=wrap;html=1;fillColor=#d5e8d4;strokeColor=#82b366;" vertex="1" parent="1">
          <mxGeometry x="405.17" y="290" width="195" height="40" as="geometry" />
        </mxCell>
        <mxCell id="EKBnd-V4X-YpZfuDpHzn-13" value="&lt;p style=&quot;line-height: 70%;&quot;&gt;&lt;b style=&quot;font-size: 9px;&quot;&gt;suspend &lt;br&gt;#n&lt;/b&gt;&lt;/p&gt;" style="text;html=1;strokeColor=none;fillColor=none;align=center;verticalAlign=middle;whiteSpace=wrap;rounded=0;" vertex="1" parent="1">
          <mxGeometry x="600.17" y="300" width="60" height="30" as="geometry" />
        </mxCell>
      </root>
    </mxGraphModel>
  </diagram>
</mxfile>
